<svg width="24" height="24" viewBox="0 0 24 24" fill="none" xmlns="http://www.w3.org/2000/svg">
<path d="M10 14.9998V13.9998C9.44772 13.9998 9 14.4475 9 14.9998H10ZM14 14.9998H15C15 14.4475 14.5523 13.9998 14 13.9998V14.9998ZM13 20.9998C13 21.5521 13.4477 21.9998 14 21.9998C14.5523 21.9998 15 21.5521 15 20.9998H13ZM9 20.9998C9 21.5521 9.44772 21.9998 10 21.9998C10.5523 21.9998 11 21.5521 11 20.9998H9ZM20 9.77794C20 9.22566 19.5523 8.77794 19 8.77794C18.4477 8.77794 18 9.22566 18 9.77794H20ZM6 9.77728C6 9.225 5.55228 8.77728 5 8.77728C4.44772 8.77728 4 9.225 4 9.77728H6ZM6.63803 20.6729L7.09202 19.7818H7.09202L6.63803 20.6729ZM5.32698 19.3618L4.43597 19.8158H4.43597L5.32698 19.3618ZM18.673 19.3618L17.782 18.9078V18.9078L18.673 19.3618ZM17.362 20.6729L16.908 19.7818H16.908L17.362 20.6729ZM15.5668 5.96381L14.8235 6.63283V6.63283L15.5668 5.96381ZM20.2568 12.6689C20.6262 13.0793 21.2585 13.1126 21.669 12.7431C22.0795 12.3736 22.1127 11.7413 21.7432 11.3308L20.2568 12.6689ZM2.25666 11.3309C1.88723 11.7415 1.92055 12.3737 2.33109 12.7432C2.74163 13.1126 3.37391 13.0793 3.74334 12.6687L2.25666 11.3309ZM8.43114 5.96433L9.17449 6.63324L8.43114 5.96433ZM12.9856 3.65126L12.6568 4.59563V4.59563L12.9856 3.65126ZM11.0119 3.65141L11.341 4.59573L11.0119 3.65141ZM10 15.9998H14V13.9998H10V15.9998ZM13 14.9998V20.9998H15V14.9998H13ZM11 20.9998V14.9998H9V20.9998H11ZM18 9.77794V16.1998H20V9.77794H18ZM14.2 19.9998H9.8V21.9998H14.2V19.9998ZM6 16.1998V9.77728H4V16.1998H6ZM9.8 19.9998C8.94342 19.9998 8.36113 19.9991 7.91104 19.9623C7.47262 19.9265 7.24842 19.8615 7.09202 19.7818L6.18404 21.5639C6.66937 21.8112 7.18608 21.9097 7.74817 21.9556C8.2986 22.0006 8.97642 21.9998 9.8 21.9998V19.9998ZM4 16.1998C4 17.0234 3.99922 17.7012 4.04419 18.2517C4.09012 18.8138 4.18868 19.3305 4.43597 19.8158L6.21799 18.9078C6.1383 18.7514 6.07337 18.5272 6.03755 18.0888C6.00078 17.6387 6 17.0564 6 16.1998H4ZM7.09202 19.7818C6.7157 19.5901 6.40973 19.2841 6.21799 18.9078L4.43597 19.8158C4.81947 20.5684 5.43139 21.1804 6.18404 21.5639L7.09202 19.7818ZM18 16.1998C18 17.0564 17.9992 17.6387 17.9624 18.0888C17.9266 18.5272 17.8617 18.7514 17.782 18.9078L19.564 19.8158C19.8113 19.3305 19.9099 18.8138 19.9558 18.2517C20.0008 17.7012 20 17.0234 20 16.1998H18ZM14.2 21.9998C15.0236 21.9998 15.7014 22.0006 16.2518 21.9556C16.8139 21.9097 17.3306 21.8112 17.816 21.5639L16.908 19.7818C16.7516 19.8615 16.5274 19.9265 16.089 19.9623C15.6389 19.9991 15.0566 19.9998 14.2 19.9998V21.9998ZM17.782 18.9078C17.5903 19.2841 17.2843 19.5901 16.908 19.7818L17.816 21.5639C18.5686 21.1804 19.1805 20.5684 19.564 19.8158L17.782 18.9078ZM14.8235 6.63283L20.2568 12.6689L21.7432 11.3308L16.31 5.29479L14.8235 6.63283ZM3.74334 12.6687L9.17449 6.63324L7.6878 5.29542L2.25666 11.3309L3.74334 12.6687ZM16.31 5.29479C15.7038 4.6213 15.2077 4.06892 14.7696 3.65822C14.3239 3.24039 13.8677 2.89952 13.3145 2.70689L12.6568 4.59563C12.8312 4.6564 13.0477 4.78542 13.4018 5.11732C13.7634 5.45636 14.1941 5.93355 14.8235 6.63283L16.31 5.29479ZM9.17449 6.63324C9.80383 5.93387 10.2344 5.45662 10.596 5.11753C10.95 4.78557 11.1665 4.65652 11.341 4.59573L10.6829 2.70708C10.1298 2.8998 9.6736 3.24074 9.22796 3.65863C8.78993 4.06939 8.29393 4.62185 7.6878 5.29542L9.17449 6.63324ZM13.3145 2.70689C12.4624 2.41014 11.535 2.41021 10.6829 2.70708L11.341 4.59573C11.767 4.44729 12.2307 4.44726 12.6568 4.59563L13.3145 2.70689Z" fill="#131A29"/>
</svg>
