<svg width="24" height="24" viewBox="0 0 24 24" fill="none" xmlns="http://www.w3.org/2000/svg">
<path d="M16 16C16 15.4477 15.5523 15 15 15C14.4477 15 14 15.4477 14 16H16ZM10 16C10 15.4477 9.55228 15 9 15C8.44772 15 8 15.4477 8 16H10ZM10.2346 20.8478L9.85195 21.7716L9.85195 21.7716L10.2346 20.8478ZM9.15224 19.7654L10.0761 19.3827L10.0761 19.3827L9.15224 19.7654ZM14.8478 19.7654L15.7716 20.1481L15.7716 20.1481L14.8478 19.7654ZM13.7654 20.8478L14.1481 21.7716L14.1481 21.7716L13.7654 20.8478ZM15.6076 16V17C15.7895 17 15.9679 16.9504 16.1237 16.8565L15.6076 16ZM8.39241 16L7.87631 16.8565C8.03209 16.9504 8.21053 17 8.39241 17V16ZM8.08085 12.6061C7.8633 13.1137 8.09845 13.7016 8.60608 13.9191C9.11371 14.1367 9.70159 13.9015 9.91915 13.3939L8.08085 12.6061ZM12 6L12.9191 5.60608C12.7616 5.2384 12.4 5 12 5C11.6 5 11.2384 5.2384 11.0809 5.60608L12 6ZM14.0809 13.3939C14.2984 13.9015 14.8863 14.1367 15.3939 13.9191C15.9015 13.7016 16.1367 13.1137 15.9191 12.6061L14.0809 13.3939ZM9.64286 11.5L8.72371 11.1061L8.72371 11.1061L9.64286 11.5ZM14 16V18H16V16H14ZM10 18V16H8V18H10ZM12 20C11.5204 20 11.2107 19.9995 10.9738 19.9833C10.7458 19.9677 10.6589 19.9411 10.6173 19.9239L9.85195 21.7716C10.1779 21.9066 10.5078 21.9561 10.8376 21.9787C11.1585 22.0005 11.5477 22 12 22V20ZM8 18C8 18.4523 7.99946 18.8415 8.02135 19.1624C8.04385 19.4922 8.09336 19.8221 8.22836 20.1481L10.0761 19.3827C10.0589 19.3411 10.0323 19.2542 10.0167 19.0262C10.0005 18.7893 10 18.4796 10 18H8ZM10.6173 19.9239C10.3723 19.8224 10.1776 19.6277 10.0761 19.3827L8.22836 20.1481C8.53284 20.8831 9.11687 21.4672 9.85195 21.7716L10.6173 19.9239ZM14 18C14 18.4796 13.9995 18.7893 13.9833 19.0262C13.9677 19.2542 13.9411 19.3411 13.9239 19.3827L15.7716 20.1481C15.9066 19.8221 15.9561 19.4922 15.9787 19.1624C16.0005 18.8415 16 18.4523 16 18H14ZM12 22C12.4523 22 12.8415 22.0005 13.1624 21.9787C13.4922 21.9561 13.8221 21.9066 14.1481 21.7716L13.3827 19.9239C13.3411 19.9411 13.2542 19.9677 13.0262 19.9833C12.7893 19.9995 12.4796 20 12 20V22ZM13.9239 19.3827C13.8224 19.6277 13.6277 19.8224 13.3827 19.9239L14.1481 21.7716C14.8831 21.4672 15.4672 20.8831 15.7716 20.1481L13.9239 19.3827ZM6 10C6 6.68629 8.68629 4 12 4V2C7.58172 2 4 5.58172 4 10H6ZM12 4C15.3137 4 18 6.68629 18 10H20C20 5.58172 16.4183 2 12 2V4ZM18 10C18 12.1814 16.8365 14.092 15.0915 15.1435L16.1237 16.8565C18.4443 15.4582 20 12.9113 20 10H18ZM8.90852 15.1435C7.16348 14.092 6 12.1814 6 10H4C4 12.9113 5.55568 15.4582 7.87631 16.8565L8.90852 15.1435ZM15.6076 15H8.39241V17H15.6076V15ZM9.91915 13.3939L10.562 11.8939L8.72371 11.1061L8.08085 12.6061L9.91915 13.3939ZM10.562 11.8939L12.9191 6.39392L11.0809 5.60608L8.72371 11.1061L10.562 11.8939ZM11.0809 6.39392L13.438 11.8939L15.2763 11.1061L12.9191 5.60608L11.0809 6.39392ZM13.438 11.8939L14.0809 13.3939L15.9191 12.6061L15.2763 11.1061L13.438 11.8939ZM9.64286 12.5H14.3571V10.5H9.64286V12.5Z" fill="#131A29"/>
</svg>
