<svg width="24" height="24" viewBox="0 0 24 24" fill="none" xmlns="http://www.w3.org/2000/svg">
<path d="M12 21C16.9706 21 21 16.9706 21 12C21 7.02944 16.9706 3 12 3C7.02944 3 3 7.02944 3 12C3 16.9706 7.02944 21 12 21Z" stroke="#131A29" stroke-width="2" stroke-linecap="round" stroke-linejoin="round"/>
<path d="M5 12C5 15.4496 7.23124 18.1555 10.4109 18.8348C10.8428 18.9271 11.0588 18.9732 11.3183 18.8861C11.5185 18.8189 11.753 18.6292 11.8606 18.4474C12 18.2119 12 17.9412 12 17.4V6.6C12 6.05876 12 5.78815 11.8606 5.55257C11.753 5.37084 11.5185 5.1811 11.3183 5.11388C11.0588 5.02676 10.8428 5.0729 10.4109 5.16518C7.23124 5.84449 5 8.55037 5 12Z" fill="#131A29"/>
</svg>
