<svg width="24" height="24" viewBox="0 0 24 24" fill="none" xmlns="http://www.w3.org/2000/svg">
<path d="M12 16.9998H12.01M12 9.99983V13.9998M6.41209 20.9998H17.588C19.3696 20.9998 20.2604 20.9998 20.783 20.6251C21.2389 20.2982 21.5365 19.7948 21.6033 19.2378C21.6798 18.5994 21.2505 17.8188 20.3918 16.2577L14.8039 6.09781C13.8897 4.43565 13.4326 3.60458 12.8286 3.32963C12.3022 3.08999 11.6978 3.08999 11.1714 3.32963C10.5674 3.60458 10.1103 4.43565 9.19614 6.09781L3.6082 16.2577C2.74959 17.8188 2.32028 18.5994 2.39677 19.2378C2.46351 19.7948 2.76116 20.2982 3.21709 20.6251C3.7396 20.9998 4.63043 20.9998 6.41209 20.9998Z" stroke="black" stroke-width="2" stroke-linecap="round" stroke-linejoin="round"/>
</svg>
